<svg height="256" width="256" xmlns="http://www.w3.org/2000/svg">
<path d="M 31 35 L 31 36 L 31 37 L 31 38 L 31 39 L 31 40 L 31 41 L 31 42 L 31 43 L 31 44 L 31 45 L 31 46 L 31 47 L 31 48 L 31 49 L 31 50 L 31 51 L 31 52 L 31 53 L 31 54 L 31 55 L 31 56 L 31 57 L 31 58 L 31 59 L 31 60 L 31 61 L 31 62 L 31 63 L 31 64 L 31 65 L 31 66 L 31 67 L 31 68 L 31 69 L 31 70 L 31 71 L 31 72 L 31 73 L 31 74 L 31 75 L 31 76 L 31 77 L 31 78 L 31 79 L 31 80 L 31 81 L 31 82 L 31 83 L 31 84 L 31 85 L 31 86 L 31 87 L 31 88 L 31 89 L 31 90 L 31 91 L 31 92 L 31 93 L 31 94 L 31 95 L 31 96 L 31 97 L 31 98 L 31 99 L 31 100 L 31 101 L 31 102 L 31 103 L 31 104 L 31 105 L 31 106 L 31 107 L 31 108 L 31 109 L 31 110 L 31 111 L 31 112 L 31 113 L 31 114 L 31 115 L 31 116 L 31 117 L 31 118 L 31 119 L 31 120 L 31 121 L 31 122 L 31 123 L 31 124 L 31 125 L 31 126 L 31 127 L 31 128 L 31 129 L 31 130 L 31 131 L 31 132 L 31 133 L 31 134 L 31 135 L 31 136 L 31 137 L 31 138 L 31 139 L 31 140 L 31 141 L 31 142 L 31 143 L 31 144 L 31 145 L 31 146 L 31 147 L 31 148 L 31 149 L 31 150 L 31 151 L 31 152 L 31 153 L 31 154 L 31 155 L 32 155 L 33 155 L 34 155 L 35 155 L 36 155 L 37 155 L 38 155 L 39 155 L 40 155 L 41 155 L 42 155 L 43 155 L 44 155 L 45 155 L 46 155 L 47 155 L 48 155 L 49 155 L 50 155 L 51 155 L 52 155 L 53 155 L 54 155 L 55 155 L 56 155 L 57 155 L 58 155 L 59 155 L 60 155 L 61 155 L 62 155 L 63 155 L 64 155 L 65 155 L 66 155 L 67 155 L 68 155 L 69 155 L 70 155 L 71 155 L 72 155 L 73 155 L 74 155 L 75 155 L 76 155 L 77 155 L 78 155 L 79 155 L 80 155 L 81 155 L 82 155 L 83 156 L 83 157 L 83 158 L 83 159 L 83 160 L 83 161 L 83 162 L 83 163 L 83 164 L 83 165 L 83 166 L 83 167 L 83 168 L 83 169 L 83 170 L 83 171 L 83 172 L 83 173 L 83 174 L 83 175 L 83 176 L 83 177 L 83 178 L 83 179 L 83 180 L 83 181 L 83 182 L 83 183 L 83 184 L 83 185 L 83 186 L 83 187 L 83 188 L 83 189 L 83 190 L 83 191 L 83 192 L 83 193 L 83 194 L 83 195 L 83 196 L 83 197 L 83 198 L 83 199 L 83 200 L 83 201 L 83 202 L 83 203 L 83 204 L 83 205 L 83 206 L 83 207 L 83 208 L 83 209 L 83 210 L 83 211 L 83 212 L 83 213 L 83 214 L 83 215 L 83 216 L 83 217 L 83 218 L 83 219 L 83 220 L 83 221 L 83 222 L 83 223 L 83 224 L 83 225 L 84 225 L 85 225 L 86 225 L 87 225 L 88 225 L 89 225 L 90 225 L 91 225 L 92 225 L 93 225 L 94 225 L 95 225 L 96 225 L 97 225 L 98 225 L 99 225 L 100 225 L 101 225 L 102 225 L 103 225 L 104 225 L 105 225 L 106 225 L 107 225 L 108 225 L 109 225 L 110 225 L 111 225 L 112 225 L 113 225 L 114 225 L 115 225 L 116 225 L 117 225 L 118 225 L 119 225 L 120 225 L 121 225 L 122 225 L 123 225 L 124 225 L 125 225 L 126 225 L 127 225 L 128 225 L 129 225 L 130 225 L 131 225 L 132 225 L 133 225 L 134 225 L 135 225 L 136 225 L 137 225 L 138 225 L 139 225 L 140 225 L 141 225 L 142 225 L 143 225 L 144 225 L 145 225 L 146 225 L 147 225 L 148 225 L 149 225 L 150 225 L 151 225 L 152 225 L 153 225 L 154 225 L 155 225 L 156 225 L 157 225 L 158 225 L 159 225 L 160 225 L 161 225 L 162 225 L 163 225 L 164 225 L 165 225 L 166 225 L 167 225 L 168 225 L 169 225 L 170 225 L 171 225 L 172 225 L 173 225 L 174 225 L 175 225 L 176 225 L 177 225 L 178 225 L 179 225 L 180 225 L 181 225 L 182 225 L 183 225 L 184 225 L 185 225 L 186 225 L 187 225 L 188 225 L 189 225 L 190 225 L 191 225 L 192 225 L 193 225 L 194 225 L 195 225 L 196 225 L 197 225 L 198 225 L 199 225 L 200 225 L 201 225 L 202 225 L 203 225 L 204 225 L 205 225 L 206 225 L 207 225 L 208 225 L 209 225 L 210 225 L 211 225 L 212 225 L 213 225 L 214 225 L 215 225 L 215 224 L 215 223 L 215 222 L 215 221 L 215 220 L 215 219 L 215 218 L 215 217 L 215 216 L 215 215 L 215 214 L 215 213 L 215 212 L 215 211 L 215 210 L 215 209 L 215 208 L 215 207 L 215 206 L 215 205 L 215 204 L 215 203 L 215 202 L 215 201 L 215 200 L 215 199 L 215 198 L 215 197 L 215 196 L 215 195 L 215 194 L 215 193 L 215 192 L 215 191 L 215 190 L 215 189 L 215 188 L 215 187 L 215 186 L 215 185 L 215 184 L 215 183 L 215 182 L 215 181 L 215 180 L 215 179 L 215 178 L 215 177 L 215 176 L 215 175 L 215 174 L 215 173 L 215 172 L 215 171 L 215 170 L 215 169 L 215 168 L 215 167 L 215 166 L 215 165 L 215 164 L 215 163 L 215 162 L 215 161 L 215 160 L 215 159 L 215 158 L 215 157 L 215 156 L 215 155 L 215 154 L 215 153 L 215 152 L 215 151 L 215 150 L 215 149 L 215 148 L 215 147 L 215 146 L 215 145 L 215 144 L 215 143 L 215 142 L 215 141 L 215 140 L 215 139 L 215 138 L 215 137 L 215 136 L 215 135 L 215 134 L 215 133 L 215 132 L 215 131 L 215 130 L 215 129 L 215 128 L 215 127 L 215 126 L 215 125 L 215 124 L 215 123 L 215 122 L 215 121 L 215 120 L 215 119 L 215 118 L 215 117 L 215 116 L 215 115 L 215 114 L 215 113 L 215 112 L 215 111 L 215 110 L 215 109 L 215 108 L 215 107 L 215 106 L 215 105 L 215 104 L 215 103 L 215 102 L 215 101 L 215 100 L 215 99 L 215 98 L 215 97 L 215 96 L 215 95 L 215 94 L 215 93 L 214 93 L 213 93 L 212 93 L 211 93 L 210 93 L 209 93 L 208 93 L 207 93 L 206 93 L 205 93 L 204 93 L 203 93 L 202 93 L 201 93 L 200 93 L 199 93 L 198 93 L 197 93 L 196 93 L 195 93 L 194 93 L 193 93 L 192 93 L 191 93 L 190 93 L 189 93 L 188 93 L 187 93 L 186 93 L 185 93 L 184 93 L 183 93 L 182 93 L 181 93 L 180 93 L 179 93 L 178 93 L 177 93 L 176 93 L 175 93 L 174 93 L 173 93 L 172 93 L 171 93 L 170 93 L 169 93 L 168 93 L 167 93 L 166 93 L 165 93 L 164 93 L 163 93 L 162 93 L 161 93 L 160 93 L 159 93 L 158 93 L 157 93 L 156 93 L 155 93 L 154 93 L 153 93 L 152 92 L 152 91 L 152 90 L 152 89 L 152 88 L 152 87 L 152 86 L 152 85 L 152 84 L 152 83 L 152 82 L 152 81 L 152 80 L 152 79 L 152 78 L 152 77 L 152 76 L 152 75 L 152 74 L 152 73 L 152 72 L 152 71 L 152 70 L 152 69 L 152 68 L 152 67 L 152 66 L 152 65 L 152 64 L 152 63 L 152 62 L 152 61 L 152 60 L 152 59 L 152 58 L 152 57 L 152 56 L 152 55 L 152 54 L 152 53 L 152 52 L 152 51 L 152 50 L 152 49 L 152 48 L 152 47 L 152 46 L 152 45 L 152 44 L 152 43 L 152 42 L 152 41 L 152 40 L 152 39 L 152 38 L 152 37 L 152 36 L 152 35 L 151 35 L 150 35 L 149 35 L 148 35 L 147 35 L 146 35 L 145 35 L 144 35 L 143 35 L 142 35 L 141 35 L 140 35 L 139 35 L 138 35 L 137 35 L 136 35 L 135 35 L 134 35 L 133 35 L 132 35 L 131 35 L 130 35 L 129 35 L 128 35 L 127 35 L 126 35 L 125 35 L 124 35 L 123 35 L 122 35 L 121 35 L 120 35 L 119 35 L 118 35 L 117 35 L 116 35 L 115 35 L 114 35 L 113 35 L 112 35 L 111 35 L 110 35 L 109 35 L 108 35 L 107 35 L 106 35 L 105 35 L 104 35 L 103 35 L 102 35 L 101 35 L 100 35 L 99 35 L 98 35 L 97 35 L 96 35 L 95 35 L 94 35 L 93 35 L 92 35 L 91 35 L 90 35 L 89 35 L 88 35 L 87 35 L 86 35 L 85 35 L 84 35 L 83 35 L 82 35 L 81 35 L 80 35 L 79 35 L 78 35 L 77 35 L 76 35 L 75 35 L 74 35 L 73 35 L 72 35 L 71 35 L 70 35 L 69 35 L 68 35 L 67 35 L 66 35 L 65 35 L 64 35 L 63 35 L 62 35 L 61 35 L 60 35 L 59 35 L 58 35 L 57 35 L 56 35 L 55 35 L 54 35 L 53 35 L 52 35 L 51 35 L 50 35 L 49 35 L 48 35 L 47 35 L 46 35 L 45 35 L 44 35 L 43 35 L 42 35 L 41 35 L 40 35 L 39 35 L 38 35 L 37 35 L 36 35 L 35 35 L 34 35 L 33 35 L 32 35 Z" fill="none" stroke="black" stroke-width="1"/>
</svg>
